<!-- icon666.com - MILLIONS vector ICONS FREE --><svg viewBox="0 0 64 64" xmlns="http://www.w3.org/2000/svg"><g id="Layer_57" data-name="Layer 57"><path d="m53.6 10.4a23.56 23.56 0 0 0 -39.33 23.08.45.45 0 0 0 .24.3.55.55 0 0 0 .38 0l4.18-1.19a.51.51 0 0 0 .35-.62 18.22 18.22 0 1 1 12.58 12.61.51.51 0 0 0 -.62.35l-1.18 4.18a.49.49 0 0 0 .34.62 23.56 23.56 0 0 0 6.41.89 23.71 23.71 0 0 0 16.65-6.89 23.57 23.57 0 0 0 0-33.33z" fill="#000000" style="fill: rgb(255, 255, 255);"></path><path d="m20.57 55.15h-8l18.26-18.15a.48.48 0 0 0 0-.7l-3.08-3.08a.5.5 0 0 0 -.7 0l-18.2 18.16v-8a.5.5 0 0 0 -.5-.5h-4.35a.5.5 0 0 0 -.5.5v16.62a.5.5 0 0 0 .5.5h16.57a.5.5 0 0 0 .5-.5v-4.35a.5.5 0 0 0 -.5-.5z" fill="#000000" style="fill: rgb(255, 255, 255);"></path></g></svg>